<?xml version="1.0" encoding="utf-8"?>
<!-- Generator: Adobe Illustrator 27.5.0, SVG Export Plug-In . SVG Version: 6.00 Build 0)  -->
<svg version="1.1" xmlns="http://www.w3.org/2000/svg" xmlns:xlink="http://www.w3.org/1999/xlink" x="0px" y="0px"
	 viewBox="0 0 500 500" style="enable-background:new 0 0 500 500;" xml:space="preserve">
<g id="BACKGROUND">
</g>
<g id="OBJECTS">
	<g>
		<g>
			<g>
				<path style="fill:#6B6B6B;" d="M184.8,212.653c-1.771,0.244-2.529,1.214-2.6,2.913c-0.158,3.794-0.416,7.586-0.495,11.381
					c-0.405,19.426-0.768,38.853-1.137,58.28c-0.029,1.554-0.316,3.203,0.094,4.643c0.698,2.449,0.429,4.773-0.159,7.108
					c-0.808,3.214-3.285,6.277-5.999,7.858c-2.007,1.991-5.023,2.861-8.05,2.731c-0.096,0.095-0.223,0.276-0.458,0.525
					c1.229,0.849,2.32,1.019,3.564,0.847c6.796-0.939,11.48-5.886,12.74-12.701c0.62-3.352-0.418-6.482-0.234-9.748
					c0.355-6.292,0.393-12.604,0.489-18.909c0.254-16.751,0.474-33.502,0.688-50.253c0.017-1.332,0.032-2.573,1.706-2.891
					c0.711,0.798,0.484,1.684,0.454,2.514c-0.371,10.534-0.086,21.074-0.47,31.614c-0.57,15.607-0.036,31.24-1.193,46.844
					c-0.594,8.01-6.625,14.956-13.998,15.913c-10.691,1.387-21.129-7.418-21.154-19.347c-0.041-19.348,0.581-38.698,0.878-58.048
					c0.094-6.134,0.03-12.271,0.07-18.407c0.008-1.128-0.217-2.603,1.921-2.046c0.201,3.479-0.202,6.912-0.249,10.35
					c-0.288,21.166-0.496,42.333-0.722,63.5c-0.026,2.406-0.172,4.828,0.047,7.215c0.303,3.307,1.694,6.14,4.703,8.627
					c-0.063-0.853,0.033-1.261-0.128-1.478c-2.488-3.358-3.01-7.259-2.961-11.243c0.298-24.447,0.655-48.892,0.994-73.338
					c0.025-1.809,0.06-3.616-0.794-5.29c-4.121-0.954-5.132-0.307-5.296,3.994c-0.307,8.028-0.418,16.063-0.637,24.094
					c-0.233,8.551-0.054,17.103-0.362,25.659c-0.354,9.821-0.642,19.686-0.119,29.487c0.596,11.184,11.488,21.698,24.198,19.388
					c8.306-1.509,16.098-10.589,16.238-19.065c0.241-14.597,0.612-29.191,0.894-43.788c0.234-12.092,0.431-24.186,0.618-36.279
					C187.923,212.775,187.264,212.313,184.8,212.653z"/>
			</g>
			<path style="fill:#76B79C;" d="M166.909,304.013L166.909,304.013c-7.048,0-12.74-5.755-12.661-12.803l0.907-72.757
				c0.017-1.366,1.129-2.464,2.495-2.464h20.298c1.404,0,2.532,1.158,2.494,2.562l-1.953,72.941
				C178.99,299.154,173.846,304.013,166.909,304.013z"/>
			<path style="fill:#FFFFFF;" d="M178.717,216.002c-4.301,1.052-8.741,0.545-13.068,0.966c-0.534,11.779-0.854,23.403-1.643,34.994
				c-0.785,11.517-0.616,23.107-2.445,34.556c0.229-23.121,0.65-46.226,2.29-69.232c-1.364-0.62-2.454-0.425-3.611-0.351
				c0.053,6.947-0.239,13.817-1.627,20.616c-0.699-6.883,0.864-13.793-0.269-20.598c-1.092-0.804-2.452-0.161-3.525-0.827
				C156.11,214.552,171.963,214.347,178.717,216.002z"/>
		</g>
		<g>
			<path style="fill:#76B79C;" d="M136.796,297.967c-2.409,0.853-4.268,2.582-6.428,3.825c-8.946,5.11-14.985,12.706-18.951,22.073
				c-1.167,2.766-1.837,5.715-3.263,8.384c-0.335,0.638-0.529,1.491,0.162,2.161c0.638,0.616,1.297,0.389,1.891,0
				c3.565-2.344,7.79-3.176,11.593-5.024c11.344-5.543,17.935-14.132,18.335-27.054c0.065-2.204,0.216-4.613,1.491-6.493
				c0.4-0.583,0.789-1.167,1.178-1.761v-4.16c-1.167,1.934-2.388,3.836-3.663,5.715
				C138.514,296.562,137.898,297.578,136.796,297.967z M110.477,331.827c4.484-13.419,11.463-24.796,25.087-31.159
				c-1.707,2.517-3.274,4.948-4.938,7.293c-1.707,2.409-3.511,4.743-4.948,7.379c5.208-3.998,8.416-9.756,12.598-14.575
				C137.952,319.046,125.722,326.771,110.477,331.827z M120.471,271.874c-0.605,0.681-1.566,1.243-1.016,2.388
				c0.54,1.113,1.588,1.145,2.658,1.145c1.718,0.011,3.425,0.162,5.132,0.13c5.78-0.13,11.031-1.318,15.558-3.944v-2.258
				c-5.683,3.479-14.078,5.348-21.457,4.289c5.845-6.828,13.16-10.307,21.457-12.047v-1.372
				C133.987,261.438,126.468,265.154,120.471,271.874z M142.803,266.116v-1.599c-2.344,1.134-4.689,2.15-6.979,3.306
				C138.32,267.801,140.578,267.045,142.803,266.116z"/>
			<g>
				<path style="fill:#76B79C;" d="M234.898,176.884c-0.281-0.789-0.94-0.94-1.664-0.854c-4.322,0.465-8.319-0.756-12.641-0.594
					c-12.933,0.465-21.479,4.97-28.437,16.012c-1.178,1.88-2.236,3.944-4.235,5.121c-5.607,3.285-11.02,6.688-15.882,10.977
					c-0.13-2.096,0.659-3.619,2.193-4.894c1.545-1.264,2.82-2.636,3.425-4.462c3.133-9.486,2.582-18.097-0.411-27.389
					c-0.67-2.096-1.718-1.729-2.852-0.292c-1.383,1.74-2.604,3.782-3.846,5.802c-4.7,7.563-5.489,14.294-2.291,22.689
					c0.346,0.897,0.843,1.804,1.113,2.723c1.167,3.998,0.713,6.893-1.415,10.275h3.944c5.002-5.553,10.869-9.832,18.14-14.121
					c1.037-0.616,1.966-1.091,3.133-1.048c2.571,0.119,4.97-0.303,7.487-0.573c10.394-1.134,18.659-4.786,26.762-11.344
					c2.388-1.923,4.181-4.224,6.688-6.04C234.715,178.429,235.19,177.662,234.898,176.884z M171.337,200.718
					c-5.294-11.225-2.377-19.005,4.279-28.912c1.232,2.431,2.031,4.916,2.366,7.617c0.443,3.684,0.659,7.088,0.443,10.869
					c-0.27,4.721-2.334,8.243-5.521,11.712c0.194-4.613,1.026-9.119,0.194-13.71C172.504,192.431,171.899,196.569,171.337,200.718z
					 M195.495,194.949c2.561-1.448,5.078-2.928,7.682-4.333c2.604-1.394,5.24-2.744,7.703-4.397
					c-6.331,1.588-11.852,4.786-17.773,7.433c9.745-14.942,21.695-17.233,38.722-15.428
					C221.004,188.38,210.524,194.257,195.495,194.949z"/>
			</g>
			<path style="fill:#76B79C;" d="M390.774,291.877c-8.849-3.835-17.946-5.208-27.356-2.344c-1.804,0.551-3.479,1.621-4.646,3.155
				c-1.134,1.491-2.528,2.172-4.862,2.031c4.473-4.991,8.33-9.983,11.831-15.277c1.242-1.891,3.425-2.949,5.424-3.846
				c11.809-5.305,17.233-14.661,18.021-27.27c0.27-4.214-0.573-8.438,0.227-12.63c0.14-0.702,0.097-1.394-0.713-1.75
				c-0.886-0.378-1.599,0.119-2.064,0.681c-1.923,2.334-4.397,4.073-6.504,6.202c-7.152,7.239-11.863,15.72-13.181,25.941
				c-0.324,2.474-1.21,4.851-1.091,7.412c0.065,1.156-0.637,2.118-1.264,3.058c-4.17,6.277-8.784,12.155-13.905,17.578v3.587
				c2.669-2.074,5.37-2.323,8.806-0.8c0.864,0.378,1.707,0.821,2.528,1.275c7.714,4.3,15.255,3.76,22.743-0.67
				c1.999-1.178,4.138-2.118,6.072-3.425C392.427,293.703,392.762,292.742,390.774,291.877z M387.122,236.927
				c1.156,16.023-1.329,30.273-18.108,37.545c2.863-5.705,6.958-10.858,8.676-17.2c-1.891,2.323-3.36,4.883-4.938,7.379
				c-1.534,2.442-3.177,4.819-4.862,7.347C368.582,256.98,376.437,246.186,387.122,236.927z M360.555,295.713
				c4.332-0.313,8.373-0.605,12.414-0.908c-4.376-1.405-8.784-0.486-13.624-0.702c3.641-3.425,7.498-4.948,12.025-4.775
				c3.63,0.14,7.239,0.454,10.783,1.221c2.593,0.562,5.132,1.34,7.422,2.906C379.105,299.894,370.613,302.638,360.555,295.713z"/>
		</g>
		<g>
			<g>
				<path style="fill:#E5D1AA;" d="M197.954,171.806c-4.103,0.998-4.796,1.807-5.65,6.597c-0.855-4.79-1.548-5.599-5.65-6.597
					c4.103-0.998,4.796-1.807,5.65-6.597C193.158,169.999,193.851,170.808,197.954,171.806z"/>
				<path style="fill:#E5D1AA;" d="M154.239,194.662c-3.119,0.758-3.645,1.373-4.295,5.014c-0.65-3.641-1.176-4.256-4.295-5.014
					c3.119-0.758,3.645-1.373,4.295-5.014C150.594,193.289,151.12,193.904,154.239,194.662z"/>
			</g>
			<g>
				<path style="fill:#E5D1AA;" d="M131.178,289.495c-4.103,0.998-4.796,1.807-5.65,6.597c-0.855-4.79-1.548-5.599-5.65-6.597
					c4.103-0.998,4.796-1.807,5.65-6.597C126.382,287.688,127.075,288.497,131.178,289.495z"/>
			</g>
			<path style="fill:#E5D1AA;" d="M369.146,241.309c-3.119,0.758-3.645,1.373-4.295,5.014c-0.65-3.641-1.176-4.256-4.295-5.014
				c3.119-0.758,3.645-1.373,4.295-5.014C365.501,239.936,366.027,240.551,369.146,241.309z"/>
		</g>
	</g>
</g>
<g id="TEXTS">
	<g>
		<text transform="matrix(1 0 0 1 194.3647 243.9219)"><tspan x="0" y="0" style="fill:#76B79C; font-family:'MontserratRoman-ExtraBold'; font-size:44.711px;">GREEN</tspan><tspan x="0" y="42.615" style="fill:#76B79C; font-family:'MontserratRoman-ExtraBold'; font-size:44.711px;">PAGES</tspan></text>
		
			<text transform="matrix(1 0 0 1 194.3647 313.248)" style="fill:#BCBCBC; font-family:'MontserratRoman-Regular'; font-size:17.1025px; letter-spacing:4;">BOOKSTORE</text>
	</g>
</g>
</svg>
